<svg width="100" height="100" viewBox="0 0 100 100" fill="none" xmlns="http://www.w3.org/2000/svg">
<path d="M79.1666 69.7917C77.4583 69.7917 76.0416 68.375 76.0416 66.6667V27.0833C76.0416 24.2083 73.7083 21.875 70.8333 21.875H47.9166C46.2083 21.875 44.7916 20.4583 44.7916 18.75C44.7916 17.0417 46.2083 15.625 47.9166 15.625H70.8333C77.1666 15.625 82.2916 20.75 82.2916 27.0833V66.6667C82.2916 68.375 80.875 69.7917 79.1666 69.7917Z" fill="#EEFAFF"/>
<path d="M58.3334 32.2914C57.625 32.2914 56.9167 32.0415 56.3333 31.5831L43.8333 21.1665C43.125 20.5831 42.7084 19.708 42.7084 18.7497C42.7084 17.7914 43.125 16.958 43.8333 16.333L56.3333 5.91631C57.6667 4.79131 59.625 4.9998 60.75 6.33313C61.875 7.66646 61.6668 9.62479 60.3334 10.7498L50.7084 18.7497L60.3334 26.7496C61.6668 27.8746 61.8333 29.833 60.75 31.1663C60.125 31.9163 59.2084 32.2914 58.3334 32.2914Z" fill="#EEFAFF"/>
<path d="M79.1666 94.7915C70.5416 94.7915 63.5416 87.7915 63.5416 79.1665C63.5416 70.5415 70.5416 63.5415 79.1666 63.5415C87.7916 63.5415 94.7916 70.5415 94.7916 79.1665C94.7916 87.7915 87.7916 94.7915 79.1666 94.7915ZM79.1666 69.7915C74 69.7915 69.7916 73.9998 69.7916 79.1665C69.7916 84.3332 74 88.5415 79.1666 88.5415C84.3333 88.5415 88.5416 84.3332 88.5416 79.1665C88.5416 73.9998 84.3333 69.7915 79.1666 69.7915Z" fill="#EEFAFF"/>
<path d="M52.0834 84.3752H29.1667C22.8334 84.3752 17.7084 79.2502 17.7084 72.9168V33.3335C17.7084 31.6252 19.125 30.2085 20.8334 30.2085C22.5417 30.2085 23.9584 31.6252 23.9584 33.3335V72.9168C23.9584 75.7918 26.2917 78.1252 29.1667 78.1252H52.0834C53.7917 78.1252 55.2084 79.5418 55.2084 81.2502C55.2084 82.9585 53.7917 84.3752 52.0834 84.3752Z" fill="#EEFAFF"/>
<path d="M41.6664 94.7912C40.7914 94.7912 39.8748 94.4161 39.2498 93.6661C38.1248 92.3328 38.333 90.3744 39.6664 89.2494L49.2913 81.2495L39.6664 73.2496C38.333 72.1246 38.1665 70.1663 39.2498 68.8329C40.3748 67.4996 42.3331 67.3328 43.6664 68.4161L56.1664 78.8328C56.8748 79.4161 57.2914 80.2912 57.2914 81.2495C57.2914 82.2079 56.8748 83.0413 56.1664 83.6663L43.6664 94.0829C43.0831 94.5413 42.3747 94.7912 41.6664 94.7912Z" fill="#EEFAFF"/>
<path d="M20.8334 36.4585C12.2084 36.4585 5.20837 29.4585 5.20837 20.8335C5.20837 12.2085 12.2084 5.2085 20.8334 5.2085C29.4584 5.2085 36.4584 12.2085 36.4584 20.8335C36.4584 29.4585 29.4584 36.4585 20.8334 36.4585ZM20.8334 11.4585C15.6667 11.4585 11.4584 15.6668 11.4584 20.8335C11.4584 26.0002 15.6667 30.2085 20.8334 30.2085C26 30.2085 30.2084 26.0002 30.2084 20.8335C30.2084 15.6668 26 11.4585 20.8334 11.4585Z" fill="#EEFAFF"/>
</svg>
