<svg width="100" height="100" viewBox="0 0 100 100" fill="none" xmlns="http://www.w3.org/2000/svg">
<path d="M31.25 63.5417C30.4584 63.5417 29.6667 63.25 29.0417 62.625C27.8334 61.4167 27.8334 59.4167 29.0417 58.2083L42.375 44.875C43.0417 44.2083 43.9167 43.875 44.875 43.9583C45.7917 44.0417 46.625 44.5417 47.1667 45.3333L51.7084 52.1667L66.5 37.375C67.7084 36.1667 69.7084 36.1667 70.9167 37.375C72.125 38.5833 72.125 40.5833 70.9167 41.7917L53.4167 59.2917C52.75 59.9583 51.875 60.2917 50.9167 60.2083C50 60.125 49.1667 59.625 48.625 58.8333L44.0834 52L33.4584 62.625C32.8334 63.25 32.0417 63.5417 31.25 63.5417Z" fill="#EEFAFF"/>
<path d="M68.75 51.0418C67.0417 51.0418 65.625 49.6252 65.625 47.9168V42.7085H60.4167C58.7084 42.7085 57.2917 41.2918 57.2917 39.5835C57.2917 37.8752 58.7084 36.4585 60.4167 36.4585H68.75C70.4584 36.4585 71.875 37.8752 71.875 39.5835V47.9168C71.875 49.6252 70.4584 51.0418 68.75 51.0418Z" fill="#EEFAFF"/>
<path d="M62.5 94.7918H37.5C14.875 94.7918 5.20831 85.1252 5.20831 62.5002V37.5002C5.20831 14.8752 14.875 5.2085 37.5 5.2085H62.5C85.125 5.2085 94.7916 14.8752 94.7916 37.5002V62.5002C94.7916 85.1252 85.125 94.7918 62.5 94.7918ZM37.5 11.4585C18.2916 11.4585 11.4583 18.2918 11.4583 37.5002V62.5002C11.4583 81.7085 18.2916 88.5418 37.5 88.5418H62.5C81.7083 88.5418 88.5416 81.7085 88.5416 62.5002V37.5002C88.5416 18.2918 81.7083 11.4585 62.5 11.4585H37.5Z" fill="#EEFAFF"/>
</svg>
